{
  "accessors": [
    {
      "bufferView": 3,
      "componentType": 5126,
      "count": 154,
      "max": [
        0.09971000254154205,
        0.2777999937534332,
        1.5842599868774414
      ],
      "min": [
        -0.09971000254154205,
        -0.3413200080394745,
        -0.02902001142501831
      ],
      "type": "VEC3"
    },
    {
      "bufferView": 3,
      "byteOffset": 1848,
      "componentType": 5126,
      "count": 154,
      "max": [
        1.0,
        0.9999732375144958,
        0.9719004034996033
      ],
      "min": [
        -1.0,
        -0.9999983906745911,
        -0.9996498823165894
      ],
      "type": "VEC3"
    },
    {
      "bufferView": 2,
      "componentType": 5126,
      "count": 154,
      "max": [
        0.9801700115203857,
        0.8068299889564514
      ],
      "min": [
        0.019829999655485153,
        0.019829999655485153
      ],
      "type": "VEC2"
    },
    {
      "bufferView": 1,
      "componentType": 5125,
      "count": 546,
      "type": "SCALAR"
    },
    {
      "bufferView": 5,
      "componentType": 5126,
      "count": 7,
      "max": [
        1.0,
        0.0,
        0.0,
        0.0,
        0.9997299909591675,
        1.0,
        0.7817800045013428,
        0.0,
        0.023150000721216202,
        0.9998599886894226,
        1.0,
        0.0,
        0.007670000195503235,
        0.33434998989105225,
        0.016939999535679817,
        1.0
      ],
      "min": [
        -1.0,
        0.0,
        -1.0,
        0.0,
        0.0,
        -0.6235600113868713,
        -0.9998599886894226,
        0.0,
        0.0,
        -0.9997299909591675,
        -0.05550000071525574,
        0.0,
        0.0,
        -1.0962799787521362,
        -0.818809986114502,
        1.0
      ],
      "type": "MAT4"
    },
    {
      "bufferView": 0,
      "componentType": 5123,
      "count": 154,
      "type": "VEC4"
    },
    {
      "bufferView": 4,
      "componentType": 5126,
      "count": 154,
      "max": [
        1.0,
        0.4886218309402466,
        0.2428636997938156,
        0.08505989611148834
      ],
      "min": [
        0.39685770869255066,
        0.0,
        0.0,
        0.0
      ],
      "type": "VEC4"
    },
    {
      "bufferView": 6,
      "componentType": 5126,
      "count": 21,
      "max": [
        0.833329975605011
      ],
      "min": [
        0.0
      ],
      "type": "SCALAR"
    },
    {
      "bufferView": 7,
      "componentType": 5126,
      "count": 21,
      "max": [
        0.015461147762835026,
        -0.015410000458359718,
        0.334119975566864
      ],
      "min": [
        -0.0128882871940732,
        -0.020044907927513123,
        0.33401837944984436
      ],
      "type": "VEC3"
    },
    {
      "bufferView": 6,
      "byteOffset": 84,
      "componentType": 5126,
      "count": 21,
      "max": [
        0.833329975605011
      ],
      "min": [
        0.0
      ],
      "type": "SCALAR"
    },
    {
      "bufferView": 8,
      "componentType": 5126,
      "count": 21,
      "max": [
        -0.4812489449977875,
        -0.4925500452518463,
        0.5068070292472839,
        0.5186206102371216
      ],
      "min": [
        -0.5074450969696045,
        -0.5196675658226013,
        0.48054128885269165,
        0.49145179986953735
      ],
      "type": "VEC4"
    },
    {
      "bufferView": 6,
      "byteOffset": 168,
      "componentType": 5126,
      "count": 21,
      "max": [
        0.833329975605011
      ],
      "min": [
        0.0
      ],
      "type": "SCALAR"
    },
    {
      "bufferView": 7,
      "byteOffset": 252,
      "componentType": 5126,
      "count": 21,
      "max": [
        0.0154600003734231,
        -0.014390000142157078,
        0.33648255467414856
      ],
      "min": [
        -0.012889999896287918,
        -0.019030075520277023,
        0.33643001317977905
      ],
      "type": "VEC3"
    },
    {
      "bufferView": 6,
      "byteOffset": 252,
      "componentType": 5126,
      "count": 21,
      "max": [
        0.833329975605011
      ],
      "min": [
        0.0
      ],
      "type": "SCALAR"
    },
    {
      "bufferView": 8,
      "byteOffset": 336,
      "componentType": 5126,
      "count": 21,
      "max": [
        0.758173406124115,
        0.05910259857773781,
        0.07979968190193176,
        0.6886682510375977
      ],
      "min": [
        0.7205600142478943,
        -0.0720769390463829,
        -0.05907224491238594,
        0.650213897228241
      ],
      "type": "VEC4"
    },
    {
      "bufferView": 6,
      "byteOffset": 336,
      "componentType": 5126,
      "count": 21,
      "max": [
        0.833329975605011
      ],
      "min": [
        0.0
      ],
      "type": "SCALAR"
    },
    {
      "bufferView": 8,
      "byteOffset": 672,
      "componentType": 5126,
      "count": 21,
      "max": [
        -0.012118096463382244,
        0.018669554963707924,
        0.08945263922214508,
        0.9994519948959351
      ],
      "min": [
        -0.0863502249121666,
        -0.00681719183921814,
        -0.0909842699766159,
        0.992063581943512
      ],
      "type": "VEC4"
    },
    {
      "bufferView": 6,
      "byteOffset": 420,
      "componentType": 5126,
      "count": 21,
      "max": [
        0.833329975605011
      ],
      "min": [
        0.0
      ],
      "type": "SCALAR"
    },
    {
      "bufferView": 8,
      "byteOffset": 1008,
      "componentType": 5126,
      "count": 21,
      "max": [
        0.0196757260710001,
        -0.0009174045408144593,
        0.19419261813163757,
        0.9997881054878235
      ],
      "min": [
        -0.029400194063782692,
        -0.0268983393907547,
        -0.16465619206428528,
        0.980438768863678
      ],
      "type": "VEC4"
    },
    {
      "bufferView": 6,
      "byteOffset": 504,
      "componentType": 5126,
      "count": 21,
      "max": [
        0.833329975605011
      ],
      "min": [
        0.0
      ],
      "type": "SCALAR"
    },
    {
      "bufferView": 8,
      "byteOffset": 1344,
      "componentType": 5126,
      "count": 21,
      "max": [
        0.03992261737585068,
        0.07555170357227325,
        0.09955190867185593,
        0.9998429417610168
      ],
      "min": [
        0.008517947979271412,
        -0.03461955115199089,
        -0.23386605083942413,
        0.9685226082801819
      ],
      "type": "VEC4"
    },
    {
      "bufferView": 6,
      "byteOffset": 588,
      "componentType": 5126,
      "count": 21,
      "max": [
        0.833329975605011
      ],
      "min": [
        0.0
      ],
      "type": "SCALAR"
    },
    {
      "bufferView": 8,
      "byteOffset": 1680,
      "componentType": 5126,
      "count": 21,
      "max": [
        0.3355403244495392,
        0.9530919790267944,
        0.3218017518520355,
        0.06921113282442093
      ],
      "min": [
        -0.38475990295410156,
        0.8891919255256653,
        0.2104121744632721,
        -0.13044454157352448
      ],
      "type": "VEC4"
    },
    {
      "bufferView": 6,
      "byteOffset": 672,
      "componentType": 5126,
      "count": 1,
      "max": [
        0.0
      ],
      "min": [
        0.0
      ],
      "type": "SCALAR"
    },
    {
      "bufferView": 8,
      "byteOffset": 2016,
      "componentType": 5126,
      "count": 1,
      "max": [
        -0.7071099877357483,
        -0.0,
        -0.0,
        0.7071099877357483
      ],
      "min": [
        -0.7071099877357483,
        -0.0,
        -0.0,
        0.7071099877357483
      ],
      "type": "VEC4"
    },
    {
      "bufferView": 6,
      "byteOffset": 676,
      "componentType": 5126,
      "count": 1,
      "max": [
        0.0
      ],
      "min": [
        0.0
      ],
      "type": "SCALAR"
    },
    {
      "bufferView": 8,
      "byteOffset": 2032,
      "componentType": 5126,
      "count": 1,
      "max": [
        0.7071099877357483,
        0.0,
        0.0,
        0.7071099877357483
      ],
      "min": [
        0.7071099877357483,
        0.0,
        0.0,
        0.7071099877357483
      ],
      "type": "VEC4"
    }
  ],
  "animations": [
    {
      "channels": [
        {
          "sampler": 0,
          "target": {
            "node": 4,
            "path": "translation"
          }
        },
        {
          "sampler": 1,
          "target": {
            "node": 4,
            "path": "rotation"
          }
        },
        {
          "sampler": 2,
          "target": {
            "node": 5,
            "path": "translation"
          }
        },
        {
          "sampler": 3,
          "target": {
            "node": 5,
            "path": "rotation"
          }
        },
        {
          "sampler": 4,
          "target": {
            "node": 6,
            "path": "rotation"
          }
        },
        {
          "sampler": 5,
          "target": {
            "node": 7,
            "path": "rotation"
          }
        },
        {
          "sampler": 6,
          "target": {
            "node": 8,
            "path": "rotation"
          }
        },
        {
          "sampler": 7,
          "target": {
            "node": 9,
            "path": "rotation"
          }
        },
        {
          "sampler": 8,
          "target": {
            "node": 2,
            "path": "rotation"
          }
        },
        {
          "sampler": 9,
          "target": {
            "node": 10,
            "path": "rotation"
          }
        }
      ],
      "name": "Swim",
      "samplers": [
        {
          "input": 7,
          "interpolation": "LINEAR",
          "output": 8
        },
        {
          "input": 9,
          "interpolation": "LINEAR",
          "output": 10
        },
        {
          "input": 11,
          "interpolation": "LINEAR",
          "output": 12
        },
        {
          "input": 13,
          "interpolation": "LINEAR",
          "output": 14
        },
        {
          "input": 15,
          "interpolation": "LINEAR",
          "output": 16
        },
        {
          "input": 17,
          "interpolation": "LINEAR",
          "output": 18
        },
        {
          "input": 19,
          "interpolation": "LINEAR",
          "output": 20
        },
        {
          "input": 21,
          "interpolation": "LINEAR",
          "output": 22
        },
        {
          "input": 23,
          "interpolation": "LINEAR",
          "output": 24
        },
        {
          "input": 25,
          "interpolation": "LINEAR",
          "output": 26
        }
      ]
    }
  ],
  "asset": {
    "extras": {
      "author": "DanielleTyler (https://sketchfab.com/DanielleTyler)",
      "license": "CC-BY-4.0 (http://creativecommons.org/licenses/by/4.0/)",
      "source": "https://sketchfab.com/3d-models/rainbow-trout-bf4a5bde9e5b4882a77f508055596044",
      "title": "Rainbow Trout"
    },
    "generator": "Sketchfab-12.66.0",
    "version": "2.0"
  },
  "bufferViews": [
    {
      "buffer": 0,
      "byteLength": 1232,
      "byteStride": 8,
      "name": "shortBufferViews",
      "target": 34962
    },
    {
      "buffer": 0,
      "byteLength": 2184,
      "byteOffset": 1232,
      "name": "floatBufferViews",
      "target": 34963
    },
    {
      "buffer": 0,
      "byteLength": 1232,
      "byteOffset": 3416,
      "byteStride": 8,
      "name": "floatBufferViews",
      "target": 34962
    },
    {
      "buffer": 0,
      "byteLength": 3696,
      "byteOffset": 4648,
      "byteStride": 12,
      "name": "floatBufferViews",
      "target": 34962
    },
    {
      "buffer": 0,
      "byteLength": 2464,
      "byteOffset": 8344,
      "byteStride": 16,
      "name": "floatBufferViews",
      "target": 34962
    },
    {
      "buffer": 0,
      "byteLength": 448,
      "byteOffset": 10808,
      "name": "floatBufferViews"
    },
    {
      "buffer": 0,
      "byteLength": 680,
      "byteOffset": 11256,
      "name": "floatBufferViews"
    },
    {
      "buffer": 0,
      "byteLength": 504,
      "byteOffset": 11936,
      "byteStride": 12,
      "name": "floatBufferViews"
    },
    {
      "buffer": 0,
      "byteLength": 2048,
      "byteOffset": 12440,
      "byteStride": 16,
      "name": "floatBufferViews"
    }
  ],
  "buffers": [
    {
      "byteLength": 14488,
      "uri": "scene.bin"
    }
  ],
  "extensionsUsed": [
    "KHR_materials_clearcoat"
  ],
  "images": [
    {
      "uri": "textures/Material_baseColor.png"
    }
  ],
  "materials": [
    {
      "doubleSided": true,
      "emissiveFactor": [
        0.5927085876,
        0.5927085876,
        0.5927085876
      ],
      "emissiveTexture": {
        "index": 0
      },
      "extensions": {
        "KHR_materials_clearcoat": {
          "clearcoatFactor": 0.2530208588,
          "clearcoatRoughnessFactor": 0.04
        }
      },
      "name": "Material",
      "pbrMetallicRoughness": {
        "baseColorTexture": {
          "index": 0
        },
        "metallicFactor": 0.0,
        "roughnessFactor": 0.7469791412
      }
    }
  ],
  "meshes": [
    {
      "name": "Cube",
      "primitives": [
        {
          "attributes": {
            "JOINTS_0": 5,
            "NORMAL": 1,
            "POSITION": 0,
            "TEXCOORD_0": 2,
            "WEIGHTS_0": 6
          },
          "indices": 3,
          "material": 0,
          "mode": 4
        }
      ]
    }
  ],
  "nodes": [
    {
      "children": [
        1
      ],
      "matrix": [
        0.8079678416252136,
        -1.3083457515236115e-16,
        0.5892265439033508,
        0.0,
        0.5892265439033508,
        1.7940490018580082e-16,
        -0.8079678416252136,
        0.0,
        0.0,
        1.0,
        2.220446049250313e-16,
        0.0,
        -0.21030987799167633,
        1.5219084332126343e-17,
        -0.06854066252708435,
        1.0
      ],
      "name": "Sketchfab_model"
    },
    {
      "children": [
        2
      ],
      "name": "Root"
    },
    {
      "children": [
        3,
        11,
        10
      ],
      "name": "Armature",
      "rotation": [
        -0.7071067690849304,
        -0.0,
        -0.0,
        0.7071067690849304
      ],
      "translation": [
        0.0,
        -0.5084400177001953,
        0.26535001397132874
      ]
    },
    {
      "children": [
        4,
        5
      ],
      "name": "Armature_rootJoint"
    },
    {
      "name": "Bone_Armature",
      "rotation": [
        -0.4940873384475708,
        -0.5058481693267822,
        0.49426984786987305,
        0.5056606531143188
      ],
      "scale": [
        0.9999980926513672,
        0.9999977946281433,
        1.000000238418579
      ],
      "translation": [
        0.0,
        -0.015410000458359718,
        0.3340800106525421
      ]
    },
    {
      "children": [
        6
      ],
      "name": "Bone.002_Armature",
      "rotation": [
        0.726464033126831,
        0.0,
        0.0,
        0.6872044801712036
      ],
      "scale": [
        1.0,
        1.000001311302185,
        1.000001311302185
      ],
      "translation": [
        0.0,
        -0.014390000142157078,
        0.33643001317977905
      ]
    },
    {
      "children": [
        7
      ],
      "name": "Bone.001_Armature",
      "rotation": [
        -0.01951868087053299,
        0.0,
        0.0,
        0.9998095035552979
      ],
      "scale": [
        1.0,
        1.0000019073486328,
        1.0000019073486328
      ],
      "translation": [
        0.0,
        0.20510999858379364,
        0.0
      ]
    },
    {
      "children": [
        8
      ],
      "name": "Bone.003_Armature",
      "rotation": [
        -0.021004583686590195,
        0.0,
        0.0,
        0.9997794032096863
      ],
      "scale": [
        1.0,
        1.000002384185791,
        1.000002384185791
      ],
      "translation": [
        0.0,
        0.2605299949645996,
        0.0
      ]
    },
    {
      "children": [
        9
      ],
      "name": "Bone.004_Armature",
      "rotation": [
        0.030769459903240204,
        0.0,
        0.0,
        0.9995265007019043
      ],
      "scale": [
        1.0,
        1.0000035762786865,
        1.0000035762786865
      ],
      "translation": [
        0.0,
        0.29455000162124634,
        0.0
      ]
    },
    {
      "name": "Bone.005_Armature",
      "rotation": [
        0.0,
        0.9496662616729736,
        0.313263475894928,
        0.0
      ],
      "scale": [
        1.0,
        0.9999974966049194,
        0.9999974966049194
      ],
      "translation": [
        0.0,
        0.256989985704422,
        0.0
      ]
    },
    {
      "name": "Cube",
      "rotation": [
        0.7071067690849304,
        0.0,
        0.0,
        0.7071067690849304
      ],
      "translation": [
        0.0,
        0.026639999821782112,
        0.5084400177001953
      ]
    },
    {
      "mesh": 0,
      "name": "Cube_0",
      "skin": 0
    }
  ],
  "samplers": [
    {
      "magFilter": 9729,
      "minFilter": 9987,
      "wrapS": 10497,
      "wrapT": 10497
    }
  ],
  "scene": 0,
  "scenes": [
    {
      "name": "Sketchfab_Scene",
      "nodes": [
        0
      ]
    }
  ],
  "skins": [
    {
      "inverseBindMatrices": 4,
      "joints": [
        3,
        4,
        5,
        6,
        7,
        8,
        9
      ],
      "skeleton": 3
    }
  ],
  "textures": [
    {
      "sampler": 0,
      "source": 0
    }
  ]
}
